<?xml version="1.0" encoding="UTF-8"?>
<svg xmlns="http://www.w3.org/2000/svg" viewBox="0 0 1024 1024" width="1024" height="1024">
  <metadata>ORCID icon designed to match IcoMoon design language and integrate with font-based icon system</metadata>
  <defs>
    <style>
      .orcid-path { 
        fill: currentColor; 
        fill-rule: evenodd;
      }
    </style>
  </defs>
  
  <!-- Single compound path for ORCID icon - circle with "iD" text -->
  <!-- This follows the same pattern as other IcoMoon glyphs with unified paths -->
  <path class="orcid-path" d="M512 960c-247.424 0-448-200.576-448-448s200.576-448 448-448 448 200.576 448 448-200.576 448-448 448zM512 128c-212.077 0-384 171.923-384 384s171.923 384 384 384 384-171.923 384-384-171.923-384-384-384zM320 608h64v-256h-64v256zM320 704h64v-64h-64v64zM448 352v256h96c70.692 0 128-57.308 128-128v-128c0-70.692-57.308-128-128-128h-96zM512 416h32c35.346 0 64 28.654 64 64v128c0 35.346-28.654 64-64 64h-32v-256z"/>
</svg>